<svg xmlns="http://www.w3.org/2000/svg" viewBox="0 0 64 80" x="0px" y="0px"><title>Outline</title><g data-name="Graduation Hat"><path d="M59.2842,23.041l-27-8a1.0049,1.0049,0,0,0-.5684,0l-27,8a1,1,0,0,0,0,1.918L17,28.5988V42c0,3.4355,7.7754,5,15,5s15-1.5645,15-5V28.5988l5-1.4816V41a.9994.9994,0,0,0-.9863.8359l-1,6A1,1,0,0,0,51,49h4a1,1,0,0,0,.9863-1.1641l-1-6A.9993.9993,0,0,0,54,41V26.5247l5.2842-1.5657a1,1,0,0,0,0-1.918ZM52.1807,47l.666-4h.3066l.666,4ZM45,42c0,.8975-4.4229,3-13,3s-13-2.1025-13-3V29.1913L31.7158,32.959a1.0055,1.0055,0,0,0,.5684,0L45,29.1913Zm7.8888-17.2324L32.0845,23.0039a1,1,0,1,0-.169,1.9922L47.6226,26.328l-1.8969.5621-.01,0L32,30.957,18.2842,26.8906l-.0095,0L8.521,24,32,17.043,55.48,24Z"/></g><text x="0" y="79" fill="#000000" font-size="5px" font-weight="bold" font-family="'Helvetica Neue', Helvetica, Arial-Unicode, Arial, Sans-serif">Created by Bartama Graphic</text><text x="0" y="84" fill="#000000" font-size="5px" font-weight="bold" font-family="'Helvetica Neue', Helvetica, Arial-Unicode, Arial, Sans-serif">from the Noun Project</text></svg>